<svg xmlns="http://www.w3.org/2000/svg" width="512" height="512" viewBox="0 0 24 24">
  <circle cx="12" cy="12" r="12" fill="#000000"/>
  <path d="M12 2.246c-5.525 0-10 4.475-10 10 0 4.418 2.865 8.166 6.839 9.489.5.092.683-.217.683-.481 0-.237-.01-.866-.014-1.7-2.782.603-3.369-1.342-3.369-1.342-.454-1.155-1.11-1.462-1.11-1.462-.908-.62.069-.608.069-.608 1.003.07 1.532 1.03 1.532 1.03.892 1.529 2.341 1.088 2.91.832.092-.646.35-1.086.636-1.336-2.22-.253-4.555-1.11-4.555-4.943 0-1.091.39-1.984 1.03-2.682-.103-.254-.447-1.27.098-2.646 0 0 .84-.269 2.75 1.025.798-.221 1.655-.332 2.504-.336.85.004 1.705.115 2.504.336 1.909-1.294 2.747-1.025 2.747-1.025.546 1.376.202 2.394.1 2.646.64.698 1.026 1.591 1.026 2.682 0 3.841-2.337 4.687-4.565 4.935.359.308.679.917.679 1.852 0 1.335-.012 2.415-.012 2.741 0 .269.18.579.688.481C19.138 20.41 22 16.663 22 12.246c0-5.525-4.475-10-10-10z" fill="#ffffff"/>
</svg> 